<svg width="37" height="37" viewBox="0 0 37 37" fill="none" xmlns="http://www.w3.org/2000/svg">
    <path opacity="0.504232" fill-rule="evenodd" clip-rule="evenodd"
        d="M13.2767 1.957C13.2767 0.648469 14.5781 -0.238382 15.7577 0.266322L18.8444 1.58707C19.3169 1.78921 19.6821 2.18872 19.8479 2.6846L21.0752 6.35632C21.2727 6.94741 21.7509 7.39476 22.3438 7.54317L35.1867 10.7581C35.988 10.9587 36.5517 11.6938 36.5517 12.5381V27.8757C36.5517 29.1086 35.3861 29.9897 34.2348 29.6271L14.5406 23.4249C13.7894 23.1884 13.2767 22.478 13.2767 21.6735V1.957Z"
        fill="#A2BFFF" />
    <path opacity="0.8" fill-rule="evenodd" clip-rule="evenodd"
        d="M8.80103 5.62198C8.80103 4.31345 10.1024 3.4266 11.282 3.9313L14.3687 5.25205C14.8412 5.45419 15.2064 5.8537 15.3722 6.34957L16.5994 10.0213C16.797 10.6124 17.2752 11.0597 17.8681 11.2082L30.711 14.4231C31.5123 14.6237 32.076 15.3587 32.076 16.2031V31.5407C32.076 32.7736 30.9104 33.6547 29.7591 33.2921L10.0649 27.0899C9.31365 26.8533 8.80103 26.1429 8.80103 25.3385V5.62198Z"
        fill="#A0BDFF" />
    <path fill-rule="evenodd" clip-rule="evenodd"
        d="M4.32507 8.73722C4.32507 7.42868 5.62645 6.54183 6.80601 7.04653L9.89277 8.36728C10.3652 8.56942 10.7305 8.96893 10.8962 9.46481L12.1235 13.1365C12.3211 13.7276 12.7992 14.175 13.3921 14.3234L26.235 17.5383C27.0364 17.7389 27.6001 18.474 27.6001 19.3183V34.6559C27.6001 35.8888 26.4345 36.7699 25.2832 36.4074L5.58893 30.2052C4.8377 29.9686 4.32507 29.2582 4.32507 28.4537V8.73722Z"
        fill="#1A47FF" />
    <path fill-rule="evenodd" clip-rule="evenodd"
        d="M0.0976267 17.548C-0.384318 16.1504 0.869891 14.7758 2.26513 15.1725L22.1573 20.828C22.7579 20.9988 23.2284 21.4769 23.3996 22.0902L27.1466 35.5128C27.3418 36.212 26.7016 36.8541 26.0226 36.6402L5.18671 30.0785C4.64465 29.9078 4.21367 29.4843 4.02492 28.9369L0.0976267 17.548Z"
        fill="#5287FF" />
</svg>
